<svg width="18" height="15" viewBox="0 0 18 15" fill="none" xmlns="http://www.w3.org/2000/svg">
<path d="M8.71155 0C10.8915 0 13.0715 0 15.2515 0C16.5915 0 17.4415 0.85 17.4515 2.19C17.4515 2.62 17.4615 3.05 17.4515 3.48C17.4515 3.61 17.3715 3.79 17.2615 3.87C14.8415 5.68 12.4215 7.48 10.0015 9.28C9.19155 9.88 8.29155 9.88 7.48155 9.28C5.04155 7.48 2.62155 5.68 0.201547 3.87C0.101547 3.79 0.021547 3.62 0.011547 3.48C-0.00845299 3 0.00154701 2.53 0.011547 2.05C0.021547 0.9 0.911547 0 2.07155 0C4.28155 0 6.50155 0 8.71155 0ZM8.74155 1.36C7.72155 1.36 6.70155 1.36 5.68155 1.36C4.50155 1.36 3.32155 1.36 2.14155 1.36C1.65155 1.36 1.39155 1.63 1.38155 2.12C1.38155 2.34 1.39155 2.55 1.38155 2.77C1.36155 2.98 1.45155 3.1 1.61155 3.22C3.80155 4.84 5.98155 6.47 8.17155 8.09C8.63155 8.43 8.86155 8.43 9.33155 8.09C11.3815 6.57 13.4115 5.02 15.4815 3.53C15.9615 3.19 16.1615 2.83 16.1115 2.25C16.0615 1.6 15.8715 1.37 15.2215 1.37C13.0615 1.37 10.9115 1.37 8.75155 1.37L8.74155 1.36Z" fill="#5A6E78"/>
<path d="M0.00154877 5.42992C0.461549 5.76992 0.861549 6.04992 1.23155 6.35992C1.32155 6.42992 1.36155 6.60992 1.36155 6.73992C1.36155 8.46992 1.36155 10.1899 1.36155 11.9199C1.36155 12.5899 1.58155 12.8099 2.26155 12.8099C6.56155 12.8099 10.8615 12.8099 15.1715 12.8099C15.8515 12.8099 16.0715 12.5899 16.0715 11.9199C16.0715 10.1899 16.0715 8.46992 16.0715 6.73992C16.0715 6.52992 16.1215 6.38992 16.3115 6.25992C16.6815 6.00992 17.0215 5.73992 17.4115 5.44992C17.4215 5.56992 17.4415 5.64992 17.4415 5.72992C17.4415 7.83992 17.4415 9.94992 17.4415 12.0599C17.4415 13.2799 16.5515 14.1599 15.3315 14.1599C10.9315 14.1599 6.52155 14.1599 2.12155 14.1599C0.901549 14.1599 0.0115488 13.2799 0.0115488 12.0599C0.0115488 9.94992 0.0115488 7.83992 0.0115488 5.72992C0.0115488 5.64992 0.0115488 5.57992 0.0115488 5.41992L0.00154877 5.42992Z" fill="#5A6E78"/>
</svg>
