<svg width="87" height="87" viewBox="0 0 87 87" fill="none" xmlns="http://www.w3.org/2000/svg">
<g clip-path="url(#clip0_264_626)">
<path d="M36.5101 50.2803H17.3901V69.4003H36.5101V50.2803Z" stroke="#44525A" stroke-width="2" stroke-miterlimit="10"/>
<path d="M36.5101 17.1396H17.3901V36.2596H36.5101V17.1396Z" stroke="#44525A" stroke-width="2" stroke-miterlimit="10"/>
<path d="M69.5702 50.2803H50.4502V69.4003H69.5702V50.2803Z" stroke="#44525A" stroke-width="2" stroke-miterlimit="10"/>
<path d="M69.5702 17.1396H50.4502V36.2596H69.5702V17.1396Z" stroke="#44525A" stroke-width="2" stroke-miterlimit="10"/>
<path d="M45.8401 11.5H41.1201V75.11H45.8401V11.5Z" stroke="#44525A" stroke-width="2" stroke-miterlimit="10"/>
<path d="M75.2902 40.9502H11.6802V45.6702H75.2902V40.9502Z" stroke="#44525A" stroke-width="2" stroke-miterlimit="10"/>
<path d="M75.2902 11.5H11.6802V75.11H75.2902V11.5Z" stroke="#44525A" stroke-width="2" stroke-miterlimit="10"/>
<path d="M85.5499 17.1396H79.6099V25.0996H85.5499V17.1396Z" stroke="#44525A" stroke-width="2" stroke-miterlimit="10"/>
<path d="M85.5499 28.2998H79.6099V36.2598H85.5499V28.2998Z" stroke="#44525A" stroke-width="2" stroke-miterlimit="10"/>
<path d="M85.5499 50.2803H79.6099V58.2403H85.5499V50.2803Z" stroke="#44525A" stroke-width="2" stroke-miterlimit="10"/>
<path d="M85.5499 61.4404H79.6099V69.4004H85.5499V61.4404Z" stroke="#44525A" stroke-width="2" stroke-miterlimit="10"/>
<path d="M6.94 17.1396H1V25.0996H6.94V17.1396Z" stroke="#44525A" stroke-width="2" stroke-miterlimit="10"/>
<path d="M6.94 28.2998H1V36.2598H6.94V28.2998Z" stroke="#44525A" stroke-width="2" stroke-miterlimit="10"/>
<path d="M6.94 50.2803H1V58.2403H6.94V50.2803Z" stroke="#44525A" stroke-width="2" stroke-miterlimit="10"/>
<path d="M6.94 61.4404H1V69.4004H6.94V61.4404Z" stroke="#44525A" stroke-width="2" stroke-miterlimit="10"/>
<path d="M25.1001 1H17.1401V6.94H25.1001V1Z" stroke="#44525A" stroke-width="2" stroke-miterlimit="10"/>
<path d="M36.2603 1H28.3003V6.94H36.2603V1Z" stroke="#44525A" stroke-width="2" stroke-miterlimit="10"/>
<path d="M58.2398 1H50.2798V6.94H58.2398V1Z" stroke="#44525A" stroke-width="2" stroke-miterlimit="10"/>
<path d="M69.3999 1H61.4399V6.94H69.3999V1Z" stroke="#44525A" stroke-width="2" stroke-miterlimit="10"/>
<path d="M25.1001 79.6104H17.1401V85.5504H25.1001V79.6104Z" stroke="#44525A" stroke-width="2" stroke-miterlimit="10"/>
<path d="M36.2603 79.6104H28.3003V85.5504H36.2603V79.6104Z" stroke="#44525A" stroke-width="2" stroke-miterlimit="10"/>
<path d="M58.2398 79.6104H50.2798V85.5504H58.2398V79.6104Z" stroke="#44525A" stroke-width="2" stroke-miterlimit="10"/>
<path d="M69.3999 79.6104H61.4399V85.5504H69.3999V79.6104Z" stroke="#44525A" stroke-width="2" stroke-miterlimit="10"/>
</g>
<defs>
<clipPath id="clip0_264_626">
<rect width="86.54" height="86.54" fill="white"/>
</clipPath>
</defs>
</svg>
