<svg width="91" height="87" viewBox="0 0 91 87" fill="none" xmlns="http://www.w3.org/2000/svg">
<g clip-path="url(#clip0_263_367)">
<path d="M40.14 50.2504L20.3 39.7704L83.94 4.65039L51.78 37.0304L69.52 48.9504L6.56 81.7004L40.14 50.2504Z" stroke="#44525A" stroke-width="2.19" stroke-miterlimit="10"/>
<path d="M6.56 64.3904V4.65039H71.77" stroke="#44525A" stroke-width="2.19" stroke-miterlimit="10"/>
<path d="M83.61 23.1104V81.7003H19.27" stroke="#44525A" stroke-width="2.19" stroke-miterlimit="10"/>
<path d="M20.3 32.9703V17.0303H34.19" stroke="#44525A" stroke-width="2.19" stroke-miterlimit="10"/>
<path d="M69.52 55.4004V70.0704H56.41" stroke="#44525A" stroke-width="2.19" stroke-miterlimit="10"/>
<path d="M52.72 73.18C54.4376 73.18 55.83 71.7876 55.83 70.07C55.83 68.3524 54.4376 66.96 52.72 66.96C51.0024 66.96 49.61 68.3524 49.61 70.07C49.61 71.7876 51.0024 73.18 52.72 73.18Z" stroke="#44525A" stroke-width="2.19" stroke-miterlimit="10"/>
<path d="M37.3 20.1399C39.0176 20.1399 40.41 18.7475 40.41 17.0299C40.41 15.3123 39.0176 13.9199 37.3 13.9199C35.5824 13.9199 34.19 15.3123 34.19 17.0299C34.19 18.7475 35.5824 20.1399 37.3 20.1399Z" stroke="#44525A" stroke-width="2.19" stroke-miterlimit="10"/>
<path d="M6.56 70.6096C8.2776 70.6096 9.67 69.2173 9.67 67.4996C9.67 65.782 8.2776 64.3896 6.56 64.3896C4.84239 64.3896 3.45 65.782 3.45 67.4996C3.45 69.2173 4.84239 70.6096 6.56 70.6096Z" stroke="#44525A" stroke-width="2.19" stroke-miterlimit="10"/>
<path d="M83.61 23.1399C85.3276 23.1399 86.72 21.7475 86.72 20.0299C86.72 18.3123 85.3276 16.9199 83.61 16.9199C81.8924 16.9199 80.5 18.3123 80.5 20.0299C80.5 21.7475 81.8924 23.1399 83.61 23.1399Z" stroke="#44525A" stroke-width="2.19" stroke-miterlimit="10"/>
</g>
<defs>
<clipPath id="clip0_263_367">
<rect width="90.1" height="86.35" fill="white"/>
</clipPath>
</defs>
</svg>
