<svg width="90" height="106" viewBox="0 0 90 106" fill="none" xmlns="http://www.w3.org/2000/svg">
<g clip-path="url(#clip0_263_333)">
<path d="M44.73 1.17969L1.90002 27.7597L44.73 54.3397L87.56 27.7597L44.73 1.17969Z" stroke="#44525A" stroke-width="2" stroke-miterlimit="10"/>
<path d="M87.56 27.7598V77.5598L44.73 104.14L1.90002 77.5598V27.7598" stroke="#44525A" stroke-width="2" stroke-miterlimit="10"/>
<path d="M44.73 104.14V54.3398" stroke="#44525A" stroke-width="2" stroke-miterlimit="10"/>
<path d="M15.73 28.2903L47.45 9.07031" stroke="#44525A" stroke-width="2" stroke-miterlimit="10"/>
<path d="M24.57 33.8997L56.29 14.6797" stroke="#44525A" stroke-width="2" stroke-miterlimit="10"/>
<path d="M33.41 39.51L65.13 20.29" stroke="#44525A" stroke-width="2" stroke-miterlimit="10"/>
<path d="M42.25 45.1302L73.97 25.9102" stroke="#44525A" stroke-width="2" stroke-miterlimit="10"/>
<path d="M44.73 93.8199L25.08 80.9199L18.77 65.9499L10.31 60.4199" stroke="#44525A" stroke-width="2" stroke-miterlimit="10"/>
<path d="M1.90002 65.9502L10.31 71.4902L15.84 84.5002" stroke="#44525A" stroke-width="2" stroke-miterlimit="10"/>
<path d="M14.61 35.4102L25.49 61.8302L37.78 69.1402" stroke="#44525A" stroke-width="2" stroke-miterlimit="10"/>
<path d="M1.90002 43.1904L10.31 48.4004" stroke="#44525A" stroke-width="2" stroke-miterlimit="10"/>
<path d="M12.0103 51.9943C12.9537 51.8428 13.5325 50.5619 13.3032 49.1332C13.0738 47.7045 12.1231 46.6691 11.1797 46.8205C10.2364 46.972 9.65754 48.2529 9.8869 49.6816C10.1162 51.1103 11.0669 52.1457 12.0103 51.9943Z" stroke="#44525A" stroke-width="2" stroke-miterlimit="10"/>
<path d="M39.9464 72.4962C40.8898 72.3448 41.4686 71.0638 41.2393 69.6351C41.0099 68.2064 40.0592 67.171 39.1158 67.3225C38.1725 67.4739 37.5936 68.7549 37.823 70.1836C38.0523 71.6123 39.003 72.6477 39.9464 72.4962Z" stroke="#44525A" stroke-width="2" stroke-miterlimit="10"/>
<path d="M9.27709 62.7404C10.2205 62.5889 10.7993 61.308 10.5699 59.8793C10.3406 58.4506 9.38991 57.4152 8.44653 57.5666C7.50316 57.7181 6.92433 58.999 7.15368 60.4277C7.38303 61.8564 8.33371 62.8918 9.27709 62.7404Z" stroke="#44525A" stroke-width="2" stroke-miterlimit="10"/>
<path d="M44.82 93.8199L64.46 80.9199L70.78 65.9499L79.24 60.4199" stroke="#44525A" stroke-width="2" stroke-miterlimit="10"/>
<path d="M87.65 65.9502L79.24 71.4902L73.71 84.5002" stroke="#44525A" stroke-width="2" stroke-miterlimit="10"/>
<path d="M74.93 35.4102L64.05 61.8302L51.76 69.1402" stroke="#44525A" stroke-width="2" stroke-miterlimit="10"/>
<path d="M87.65 43.1904L79.24 48.4004" stroke="#44525A" stroke-width="2" stroke-miterlimit="10"/>
<path d="M79.6472 49.6813C79.8766 48.2526 79.2977 46.9716 78.3544 46.8202C77.411 46.6687 76.4603 47.7042 76.231 49.1328C76.0016 50.5615 76.5804 51.8425 77.5238 51.9939C78.4672 52.1454 79.4179 51.11 79.6472 49.6813Z" stroke="#44525A" stroke-width="2" stroke-miterlimit="10"/>
<path d="M51.7211 70.1676C51.9504 68.7389 51.3716 67.4579 50.4282 67.3065C49.4848 67.1551 48.5342 68.1905 48.3048 69.6192C48.0755 71.0479 48.6543 72.3288 49.5977 72.4803C50.541 72.6317 51.4917 71.5963 51.7211 70.1676Z" stroke="#44525A" stroke-width="2" stroke-miterlimit="10"/>
<path d="M82.3857 60.4078C82.6151 58.9791 82.0363 57.6982 81.0929 57.5467C80.1495 57.3953 79.1988 58.4307 78.9695 59.8594C78.7401 61.2881 79.319 62.5691 80.2623 62.7205C81.2057 62.8719 82.1564 61.8365 82.3857 60.4078Z" stroke="#44525A" stroke-width="2" stroke-miterlimit="10"/>
</g>
<defs>
<clipPath id="clip0_263_333">
<rect width="89.45" height="105.32" fill="white"/>
</clipPath>
</defs>
</svg>
