<svg width="186" height="100" viewBox="0 0 186 100" fill="none" xmlns="http://www.w3.org/2000/svg">
<g clip-path="url(#clip0_264_443)">
<path d="M184.37 56.7402H1.08997V99.9502H184.37V56.7402Z" fill="#44525A"/>
<path d="M184.37 1.08984H1.08997V40.0998H184.37V1.08984Z" stroke="#44525A" stroke-width="2.19" stroke-miterlimit="10"/>
<path d="M101.25 1.08984V30.2498H119.42V40.0998" stroke="#44525A" stroke-width="2.19" stroke-miterlimit="10"/>
<path d="M114.54 1.08984V20.8998H135.38V40.0998" stroke="#44525A" stroke-width="2.19" stroke-miterlimit="10"/>
<path d="M128.73 1.08984V11.3898H151.75V40.0998" stroke="#44525A" stroke-width="2.19" stroke-miterlimit="10"/>
<path d="M169.07 1.08984V39.8998" stroke="#44525A" stroke-width="2.19" stroke-miterlimit="10"/>
<path d="M122.52 43.4902H114.54V54.1502H122.52V43.4902Z" fill="#44525A"/>
<path d="M139.37 43.4902H131.39V54.1502H139.37V43.4902Z" fill="#44525A"/>
<path d="M156.21 43.4902H148.23V54.1502H156.21V43.4902Z" fill="#44525A"/>
<path d="M173.06 43.4902H165.08V54.1502H173.06V43.4902Z" fill="#44525A"/>
<path d="M84.23 1.08984V30.2498H66.05V40.0998" stroke="#44525A" stroke-width="2.19" stroke-miterlimit="10"/>
<path d="M70.9301 1.08984V20.8998H50.0901V40.0998" stroke="#44525A" stroke-width="2.19" stroke-miterlimit="10"/>
<path d="M56.7401 1.08984V11.3898H33.7201V40.0998" stroke="#44525A" stroke-width="2.19" stroke-miterlimit="10"/>
<path d="M16.4 1.08984V39.8998" stroke="#44525A" stroke-width="2.19" stroke-miterlimit="10"/>
<path d="M62.9501 54.1494H70.9301V43.4894H62.9501V54.1494Z" fill="#44525A"/>
<path d="M46.1101 54.1494H54.0901V43.4894H46.1101V54.1494Z" fill="#44525A"/>
<path d="M29.26 54.1494H37.24V43.4894H29.26V54.1494Z" fill="#44525A"/>
<path d="M12.42 54.1494H20.4V43.4894H12.42V54.1494Z" fill="#44525A"/>
<path d="M101.25 99.9502V67.1902H119.42V56.7402" stroke="white" stroke-width="2.19" stroke-miterlimit="10"/>
<path d="M114.54 99.9502V76.5502H135.38V56.7402" stroke="white" stroke-width="2.19" stroke-miterlimit="10"/>
<path d="M128.73 99.9502V86.0502H151.75V56.7402" stroke="white" stroke-width="2.19" stroke-miterlimit="10"/>
<path d="M169.07 99.9504V56.9404" stroke="white" stroke-width="2.19" stroke-miterlimit="10"/>
<path d="M84.23 99.9502V67.1902H66.05V56.7402" stroke="white" stroke-width="2.19" stroke-miterlimit="10"/>
<path d="M70.9301 99.9502V76.5502H50.0901V56.7402" stroke="white" stroke-width="2.19" stroke-miterlimit="10"/>
<path d="M56.74 99.9502V86.0502H33.72V56.7402" stroke="white" stroke-width="2.19" stroke-miterlimit="10"/>
<path d="M16.4 99.9504V56.9404" stroke="white" stroke-width="2.19" stroke-miterlimit="10"/>
</g>
<defs>
<clipPath id="clip0_264_443">
<rect width="185.47" height="99.95" fill="white"/>
</clipPath>
</defs>
</svg>
