<svg width="19" height="19" viewBox="0 0 19 19" fill="none" xmlns="http://www.w3.org/2000/svg">
<g clip-path="url(#clip0_480_32)">
<path d="M18.2 9.14C18.2 11.4 18.2 13.66 18.2 15.93C18.2 17.3 17.3 18.2 15.93 18.2C11.37 18.2 6.81 18.2 2.25 18.2C0.91 18.2 0 17.29 0 15.95C0 11.38 0 6.81 0 2.23C0 0.91 0.91 0 2.23 0C6.82 0 11.4 0 15.98 0C17.28 0 18.19 0.92 18.19 2.21C18.19 4.52 18.19 6.83 18.19 9.14H18.2ZM16.78 9.09C16.78 6.85 16.78 4.61 16.78 2.38C16.78 1.64 16.56 1.42 15.83 1.42C11.34 1.42 6.86 1.42 2.37 1.42C1.66 1.42 1.43 1.65 1.43 2.35C1.43 6.85 1.43 11.35 1.43 15.85C1.43 16.54 1.66 16.77 2.34 16.77C6.85 16.77 11.36 16.77 15.87 16.77C16.53 16.77 16.78 16.53 16.78 15.88C16.78 13.62 16.78 11.36 16.78 9.1V9.09Z" fill="#5A6E78"/>
<path d="M7.28 7.01992H9.67V8.03992C10.12 7.43992 10.64 7.07992 11.3 6.93992C12 6.79992 12.7 6.81992 13.37 7.05992C14.45 7.44992 14.86 8.34992 14.93 9.39992C15.01 10.7299 14.99 12.0699 15.01 13.4099C15.01 13.9299 15.01 14.4499 15.01 14.9999H12.57C12.57 14.8699 12.55 14.7499 12.55 14.6199C12.55 13.4999 12.55 12.3699 12.55 11.2499C12.55 10.8799 12.55 10.5099 12.49 10.1499C12.37 9.37992 12 9.03992 11.32 8.98992C10.55 8.93992 10.01 9.28992 9.81 9.99992C9.72 10.3299 9.68 10.6699 9.67 11.0099C9.65 12.2099 9.67 13.3999 9.67 14.5999C9.67 14.7299 9.67 14.8599 9.67 15.0099H7.28V7.01992Z" fill="#5A6E78"/>
<path d="M5.66 15.02H3.22V7.02002H5.66V15.02Z" fill="#5A6E78"/>
<path d="M5.93 4.4401C5.93 5.2401 5.29 5.8901 4.5 5.9001C3.69 5.9101 3.03 5.2601 3.02 4.4501C3.02 3.6501 3.66 3.0001 4.45 2.9901C5.26 2.9801 5.92 3.6301 5.92 4.4401H5.93Z" fill="#5A6E78"/>
</g>
<defs>
<clipPath id="clip0_480_32">
<rect width="18.2" height="18.2" fill="white"/>
</clipPath>
</defs>
</svg>
